<svg width="16" height="16" viewBox="0 0 16 16" fill="none" xmlns="http://www.w3.org/2000/svg">
<path fill-rule="evenodd" clip-rule="evenodd" d="M8.61529 6.55123C8.59834 6.8826 8.57897 7.26115 8.3697 7.52338C8.35306 7.54255 8.33543 7.56083 8.31687 7.57816C8.21416 7.68707 8.08322 7.76549 7.93857 7.80472L7.91063 7.81115C7.75398 7.84744 7.59005 7.83651 7.43965 7.77975C7.41661 7.77237 7.39397 7.76384 7.37179 7.75419C7.06929 7.6104 6.88574 7.27924 6.72537 6.98988C6.70791 6.95838 6.69073 6.92738 6.6737 6.89717L6.43499 6.47374L6.43496 6.47368L6.43492 6.47362C5.9333 5.58397 5.43169 4.69436 4.93799 3.79994C4.88168 3.69778 4.82394 3.59676 4.76628 3.49586L4.76628 3.49586L4.76626 3.49583C4.60235 3.20904 4.43898 2.9232 4.31037 2.61471C4.29832 2.5858 4.28597 2.55659 4.27351 2.52712L4.27344 2.52696L4.27339 2.52684C4.13762 2.20572 3.98862 1.85329 4.05977 1.5081C4.19761 0.841272 5.01367 0.493286 5.59418 0.303706C5.77252 0.246767 5.95479 0.198627 6.13895 0.154549C6.32312 0.110471 6.50879 0.0759873 6.69413 0.0503374C7.29918 -0.0331724 8.18599 -0.0774347 8.6022 0.46082C8.81792 0.740058 8.83875 1.12124 8.85776 1.46892C8.85953 1.50129 8.86128 1.53337 8.86317 1.56505C8.88314 1.89904 8.86194 2.22783 8.84066 2.55775L8.84065 2.55779C8.83321 2.67323 8.82575 2.7888 8.82005 2.90478C8.77388 3.85391 8.71784 4.80273 8.66181 5.7514L8.62082 6.44772C8.61886 6.48156 8.61709 6.51613 8.61529 6.55123ZM14.0902 6.18208C13.8881 5.75983 13.6165 5.37435 13.2867 5.04164C13.244 4.9994 13.1984 4.96032 13.15 4.92471C13.1053 4.89133 13.0589 4.8603 13.011 4.83175C12.9617 4.80483 12.911 4.78056 12.8592 4.75903C12.7566 4.71892 12.6467 4.70083 12.5367 4.70596C12.4315 4.71192 12.3288 4.74066 12.2358 4.79018C12.0949 4.86004 11.9424 4.97233 11.7396 5.16036C11.7209 5.17886 11.699 5.19895 11.6771 5.21904L11.6447 5.24896C11.5106 5.37478 11.3643 5.5241 11.1973 5.69448L11.0698 5.82451C10.7276 6.16937 10.3907 6.51612 10.0557 6.86666L9.45658 7.48636C9.34685 7.5996 9.24693 7.72191 9.15792 7.85198C9.0821 7.96192 9.02848 8.08555 9.00007 8.21594C8.98363 8.31595 8.98611 8.41814 9.00738 8.51724L9.01044 8.5305C9.05792 8.73576 9.18341 8.91462 9.36048 9.02943C9.53755 9.14423 9.75238 9.18601 9.95973 9.14597C9.99258 9.14125 10.0181 9.13561 10.0336 9.1318L13.2298 8.39557L13.2774 8.38465L13.2774 8.38464C13.5138 8.33054 13.7516 8.2761 13.9635 8.15341C14.1153 8.06567 14.2596 7.97869 14.3586 7.80323C14.4114 7.70684 14.4434 7.60044 14.4524 7.49094C14.5012 7.05671 14.2734 6.56358 14.0902 6.18208ZM5.74281 10.0962L6.48204 9.92595C6.49759 9.92237 6.52327 9.91645 6.55464 9.90639C6.7586 9.85168 6.93333 9.72017 7.04204 9.53954C7.15075 9.35891 7.18495 9.14326 7.13744 8.938L7.13437 8.92474C7.11003 8.82637 7.06743 8.73342 7.00878 8.65069C6.92587 8.54594 6.82329 8.45829 6.70677 8.39266C6.56962 8.31469 6.42608 8.24845 6.2777 8.19467L5.46689 7.89975C5.01187 7.73117 4.55688 7.56684 4.09761 7.40658L3.92598 7.34548C3.70117 7.26527 3.50403 7.19493 3.32818 7.14071L3.28584 7.128C3.2573 7.11953 3.22876 7.11106 3.20401 7.10256C2.93894 7.02159 2.75272 6.98804 2.59512 6.98694C2.48987 6.98309 2.38504 7.00215 2.28791 7.04279C2.18669 7.08632 2.0958 7.15065 2.02118 7.23158C1.98407 7.27366 1.94917 7.31765 1.91664 7.36336C1.88612 7.40992 1.85813 7.45809 1.8328 7.50765C1.8049 7.56081 1.78093 7.61594 1.76108 7.67258C1.61088 8.11587 1.53621 8.58112 1.54016 9.049C1.54311 9.47202 1.55483 10.0149 1.78831 10.3829C1.84457 10.4774 1.92005 10.559 2.00988 10.6226C2.17612 10.737 2.34406 10.752 2.51878 10.7645C2.76344 10.782 3.00089 10.727 3.23725 10.6722L3.2849 10.6612L5.74074 10.0955L5.74281 10.0962ZM8.0917 10.6835C8.00122 10.5568 7.87286 10.4618 7.72498 10.4121C7.5771 10.3625 7.41727 10.3607 7.26833 10.4071C7.23334 10.4187 7.19925 10.4328 7.16632 10.4493C7.11538 10.4752 7.06679 10.5054 7.02108 10.5396C6.88793 10.638 6.77583 10.7658 6.67377 10.8939C6.66466 10.9054 6.65584 10.9183 6.64689 10.9313L6.64688 10.9313L6.64687 10.9313C6.63037 10.9554 6.61342 10.98 6.59346 10.9981L6.07973 11.703C5.78856 12.0979 5.5014 12.4938 5.21666 12.896L5.10807 13.0473L5.10807 13.0473C4.96782 13.2424 4.84473 13.4137 4.74323 13.5688C4.73459 13.582 4.72583 13.5957 4.71709 13.6093C4.70151 13.6336 4.68599 13.6579 4.67134 13.6787C4.51921 13.9135 4.43308 14.0848 4.38891 14.2375C4.35572 14.3389 4.34526 14.4464 4.35827 14.5523C4.37248 14.6626 4.40981 14.7686 4.46781 14.8636C4.49865 14.9113 4.53189 14.9573 4.56739 15.0016C4.60428 15.0443 4.64346 15.0849 4.68476 15.1232C4.72886 15.1652 4.77602 15.2037 4.82586 15.2387C5.18086 15.4847 5.56944 15.6615 5.97815 15.7982C6.31826 15.9107 6.67176 15.978 7.02951 15.9984C7.09037 16.0015 7.15137 16.0001 7.21205 15.9945C7.26828 15.9896 7.32421 15.9817 7.37962 15.971C7.43499 15.9581 7.48964 15.9423 7.54332 15.9236C7.64776 15.8847 7.74286 15.8243 7.82245 15.7464C7.89779 15.6711 7.95576 15.5804 7.99231 15.4805C8.05165 15.3329 8.09062 15.1454 8.11616 14.8671C8.11765 14.8407 8.12065 14.8108 8.12365 14.7809L8.12796 14.7365C8.14377 14.5552 8.15281 14.3491 8.16309 14.1145L8.1631 14.1142C8.16591 14.0501 8.16881 13.9839 8.17197 13.9155C8.19683 13.425 8.21626 12.9367 8.23157 12.447C8.23157 12.447 8.26418 11.5767 8.26408 11.5762C8.27154 11.3757 8.26521 11.1534 8.20928 10.9538C8.18472 10.858 8.14503 10.7668 8.0917 10.6835ZM13.3978 11.6661C13.6377 11.8106 13.7898 11.9275 13.8972 12.0448C13.9716 12.1214 14.0283 12.2134 14.0632 12.3143C14.0988 12.4195 14.1117 12.531 14.1013 12.6416C14.0947 12.6979 14.0851 12.7539 14.0726 12.8092C14.0582 12.8636 14.041 12.9172 14.0211 12.9699C13.9998 13.0269 13.9743 13.0822 13.945 13.1354C13.7338 13.5119 13.4622 13.8407 13.1549 14.1423C12.8987 14.3922 12.6105 14.6073 12.2979 14.7821C12.2446 14.8115 12.1893 14.837 12.1323 14.8583C12.0796 14.8785 12.0258 14.896 11.9712 14.9106C11.9158 14.9233 11.8597 14.9329 11.8032 14.9396C11.6922 14.9506 11.5801 14.9382 11.4742 14.9032C11.3734 14.8685 11.2814 14.8123 11.2047 14.7385C11.0862 14.6306 10.9693 14.4803 10.8239 14.2413C10.8105 14.2176 10.7942 14.1911 10.778 14.1647C10.7706 14.1528 10.7632 14.1408 10.7561 14.1291C10.6612 13.9713 10.5612 13.7877 10.4473 13.5785C10.4177 13.5242 10.3872 13.4682 10.3556 13.4104C10.1179 12.9809 9.88598 12.55 9.65683 12.1166L9.24503 11.3482C9.15021 11.1712 9.05859 10.9691 9.0208 10.7648C9.00197 10.6684 8.99834 10.5696 9.01003 10.4721C9.03549 10.3188 9.10883 10.1774 9.2196 10.068C9.33037 9.95869 9.47291 9.88703 9.6269 9.86324C9.66343 9.85835 9.70027 9.85611 9.73712 9.85655C9.79426 9.85751 9.8512 9.8634 9.90732 9.87416C10.0702 9.90433 10.2271 9.9702 10.3752 10.0407C10.3883 10.0471 10.4019 10.0547 10.4156 10.0624C10.4411 10.0768 10.4674 10.0916 10.4934 10.0992L11.2639 10.5064C11.7 10.7347 12.132 10.9649 12.5638 11.2011C12.6255 11.2345 12.6852 11.2666 12.743 11.2976C12.9485 11.4081 13.1293 11.5053 13.2852 11.5987C13.2977 11.6062 13.3105 11.614 13.3234 11.6219C13.349 11.6375 13.3748 11.6532 13.3978 11.6661Z" fill="#000000"/>
</svg>
